<svg width="412" height="46" fill="none" xmlns="http://www.w3.org/2000/svg"><g clip-path="url(#clip0)"><path fill="#fff" d="M0 0h412v46H0z"/><path d="M67.2835 23.4017c0 9.2293-7.9803 16.8681-18.024 16.8681-10.0437 0-18.024-7.6388-18.024-16.8681 0-9.2294 7.9803-16.8682 18.024-16.8682 10.0437 0 18.024 7.6388 18.024 16.8682z" fill="#fff" stroke="#5F5F5F" stroke-width="3.06694"/><g filter="url(#filter0_i)"><path d="M90.3473 23.2483c-13.1149 13.8863-47.9452 33.3271-82.34732 0" stroke="#5F5F5F" stroke-width="4.60041"/></g><path d="M7.07983 25.8552c13.40797-15.7378 49.01667-37.7707 84.18747 0" stroke="#429778" stroke-width="4.60041"/><path d="M5.85315 24.7817c13.77435-16.89497 50.35585-40.548 86.48765 0" stroke="#98EACC" stroke-width="1.53347"/><path d="M49.0203 14.5075l2.3002 2.6836m-10.8876 6.2872l2.5302-2.0702m4.217 8.2808l2.3002 2.7602m8.5108-8.9708l-2.5302 1.9935M51.7037 22.2515l-3.8336-1.2268-1.0735 3.6037 3.757 1.3801 1.1501-3.757z" stroke="#39DBA1" stroke-width=".460041"/><path d="M60.4313 17.9572l-4.7507 1.3765 2.27 4.1528M51.5962 22.2077l4.0961-2.9132-4.4455-2.0745 4.8914-4.1535-6.6275-2.5641" stroke="#39DBA1" stroke-width=".613388"/><ellipse rx="1.59289" ry="1.62823" transform="matrix(-.95177 -.30682 .29224 -.95635 56.1006 13.0542)" fill="#408B70"/><ellipse rx="1.19466" ry="1.22117" transform="matrix(-.95177 -.30682 .29224 -.95635 55.6806 19.3336)" fill="#408B70"/><ellipse rx=".995554" ry="1.01764" transform="matrix(-.95177 -.30682 .29224 -.95635 51.5845 22.2465)" fill="#408B70"/><ellipse rx="1.19466" ry="1.22117" transform="matrix(-.95177 -.30682 .29224 -.95635 49.5487 10.5147)" fill="#408B70"/><ellipse rx=".796443" ry=".814115" transform="matrix(-.95177 -.30682 .29224 -.95635 51.2469 17.22)" fill="#408B70"/><ellipse rx=".814115" ry=".796443" transform="matrix(.29224 -.95635 .95177 .30682 57.9366 23.3964)" fill="#408B70"/><ellipse rx=".814115" ry=".796443" transform="matrix(.29224 -.95635 .95177 .30682 60.4311 17.9572)" fill="#408B70"/><path d="M54.6936 34.9959l-1.3401-4.8794-4.0433 2.3315M50.5553 25.9215l2.8363 4.2072 2.0198-4.5661 4.0438 5.024 2.4965-6.8071" stroke="#39DBA1" stroke-width=".613388"/><ellipse rx="1.62823" ry="1.59289" transform="matrix(.29224 -.95635 .95177 .30682 59.4671 30.5479)" fill="#408B70"/><ellipse rx="1.22117" ry="1.19466" transform="matrix(.29224 -.95635 .95177 .30682 53.3534 30.1166)" fill="#408B70"/><ellipse rx="1.01764" ry=".995554" transform="matrix(.29224 -.95635 .95177 .30682 50.5174 25.9094)" fill="#408B70"/><ellipse rx="1.22117" ry="1.19466" transform="matrix(.29224 -.95635 .95177 .30682 61.9397 23.8184)" fill="#408B70"/><ellipse rx=".814115" ry=".796443" transform="matrix(.29224 -.95635 .95177 .30682 55.4112 25.5626)" fill="#408B70"/><ellipse rx=".796443" ry=".814115" transform="matrix(.95177 .30682 -.29224 .95635 49.3979 32.4336)" fill="#408B70"/><ellipse rx=".796443" ry=".814115" transform="matrix(.95177 .30682 -.29224 .95635 54.6935 34.9958)" fill="#408B70"/><path d="M46.7823 24.6884l-4.0961 2.9132 4.4455 2.0745-4.8914 4.1535 6.6275 2.5641M37.9473 28.9394l4.7506-1.3765-2.2699-4.1528" stroke="#39DBA1" stroke-width=".613388"/><ellipse rx="1.59289" ry="1.62823" transform="matrix(.95177 .30682 -.29224 .95635 42.278 33.8419)" fill="#408B70"/><ellipse rx="1.19466" ry="1.22117" transform="matrix(.95177 .30682 -.29224 .95635 42.6979 27.5629)" fill="#408B70"/><ellipse rx=".995554" ry="1.01764" transform="matrix(.95177 .30682 -.29224 .95635 46.7941 24.6496)" fill="#408B70"/><ellipse rx="1.19466" ry="1.22117" transform="matrix(.95177 .30682 -.29224 .95635 48.8299 36.3818)" fill="#408B70"/><ellipse rx=".796443" ry=".814115" transform="matrix(.95177 .30682 -.29224 .95635 47.1317 29.6765)" fill="#408B70"/><ellipse rx=".814115" ry=".796443" transform="matrix(-.29224 .95635 -.95177 -.30682 40.4419 23.5002)" fill="#408B70"/><ellipse rx=".814115" ry=".796443" transform="matrix(-.29224 .95635 -.95177 -.30682 37.9475 28.9394)" fill="#408B70"/><path d="M43.6643 11.9176l1.3401 4.8794 4.0433-2.3315M47.8026 20.9915l-2.8363-4.2071-2.0197 4.5661-4.0439-5.0241-2.4965 6.8072" stroke="#39DBA1" stroke-width=".613388"/><ellipse rx="1.62823" ry="1.59289" transform="matrix(-.29224 .95635 -.95177 -.30682 38.8907 16.3657)" fill="#408B70"/><ellipse rx="1.22117" ry="1.19466" transform="matrix(-.29224 .95635 -.95177 -.30682 45.0044 16.797)" fill="#408B70"/><ellipse rx="1.01764" ry=".995554" transform="matrix(-.29224 .95635 -.95177 -.30682 47.8404 21.0037)" fill="#408B70"/><ellipse rx="1.22117" ry="1.19466" transform="matrix(-.29224 .95635 -.95177 -.30682 36.4183 23.0947)" fill="#408B70"/><ellipse rx=".814115" ry=".796443" transform="matrix(-.29224 .95635 -.95177 -.30682 42.9466 21.3505)" fill="#408B70"/><ellipse rx=".796443" ry=".814115" transform="matrix(-.95177 -.30682 .29224 -.95635 48.96 14.4799)" fill="#408B70"/><ellipse rx=".796443" ry=".814115" transform="matrix(-.95177 -.30682 .29224 -.95635 43.6643 11.9172)" fill="#408B70"/><path d="M63.6649 23.4017c0 7.5927-6.4235 13.8012-14.4146 13.8012s-14.4146-6.2085-14.4146-13.8012c0-7.5928 6.4235-13.80127 14.4146-13.80127S63.6649 15.8089 63.6649 23.4017z" stroke="#408B70" stroke-width="1.53347"/><path d="M98.614 35v-2.6207l1.557-.2246 6.934-18.9587h4.478l6.888 18.9587 1.558.2246V35h-7.428v-2.6207l1.512-.2695-.958-2.9951h-7.667l-.959 2.9951 1.513.2695V35h-7.428zm7.907-9.105h5.601l-2.546-7.4726-.21-.659h-.09l-.224.7039-2.531 7.4277zM121.346 35v-2.6207l2.112-.4492V14.7235l-2.336-.4493v-2.6356h6.709v20.2915l2.111.4492V35h-8.596zm17.177 6.5442c-.819 0-1.737-.1098-2.755-.3295-1.019-.2096-1.917-.5041-2.696-.8835l.809-3.1149c.699.2995 1.437.5342 2.216.7039.789.1797 1.523.2695 2.201.2695 1.169 0 2.022-.3244 2.561-.9734.549-.6489.824-1.5524.824-2.7105v-1.0632c-.988 1.2479-2.296 1.8719-3.924 1.8719-1.327 0-2.461-.3295-3.399-.9884-.938-.6689-1.662-1.6023-2.171-2.8004-.5-1.198-.749-2.5907-.749-4.1781v-.3145c0-1.7071.249-3.1997.749-4.4776.499-1.2779 1.213-2.2712 2.141-2.98.929-.7189 2.042-1.0783 3.34-1.0783.968 0 1.802.2047 2.5.614.699.3994 1.293.9734 1.782 1.7222l.315-2.0367h5.706v2.6357l-1.902.4043v12.6841c0 2.1365-.674 3.8387-2.022 5.1066-1.338 1.2779-3.18 1.9168-5.526 1.9168zm.464-9.6291c1.228 0 2.127-.4792 2.696-1.4376v-7.0384c-.589-1.0283-1.483-1.5425-2.681-1.5425-1.118 0-1.931.4742-2.441 1.4227-.499.9484-.748 2.1864-.748 3.7138v.3145c0 1.4177.244 2.5358.733 3.3545.49.8087 1.303 1.213 2.441 1.213zm17.881 3.3994c-1.607 0-2.985-.3494-4.133-1.0483-1.138-.6988-2.012-1.6672-2.621-2.9052-.609-1.2479-.913-2.6806-.913-4.2979v-.3145c0-1.6073.304-3.03.913-4.2679.609-1.248 1.483-2.2214 2.621-2.9202 1.148-.7089 2.516-1.0633 4.103-1.0633 1.597 0 2.965.3495 4.103 1.0483 1.148.6989 2.027 1.6722 2.636 2.9202.609 1.2379.913 2.6656.913 4.2829v.3145c0 1.6173-.304 3.05-.913 4.2979-.609 1.238-1.483 2.2064-2.621 2.9052-1.138.6989-2.501 1.0483-4.088 1.0483zm0-3.3545c1.128 0 1.952-.4492 2.471-1.3478.529-.8985.793-2.0815.793-3.5491v-.3145c0-1.4376-.264-2.6107-.793-3.5192-.529-.9085-1.363-1.3627-2.501-1.3627s-1.967.4542-2.486 1.3627c-.519.9085-.779 2.0816-.779 3.5192v.3145c0 1.4776.26 2.6656.779 3.5641.519.8885 1.358 1.3328 2.516 1.3328z" fill="#408B70"/><path d="M166.781 35v-2.6207l2.097-.4492V21.8816l-2.321-.4492v-2.6357h6.394l.165 2.0067.03.3594c.799-1.777 1.997-2.6656 3.594-2.6656.26 0 .539.02.839.0599.309.04.589.0999.838.1797l-.464 4.0284-2.171-.1198c-.619-.03-1.124.0749-1.513.3145-.379.2396-.719.584-1.018 1.0333v7.9369l2.096.4492V35h-8.566zm13.014 0v-2.6207l2.112-.4492V21.8816l-2.337-.4492v-2.6357h6.709v13.1334l2.097.4492V35h-8.581zm1.962-19.6326v-3.7288h4.522v3.7288h-4.522zm14.451 19.9471c-1.508 0-2.671-.4143-3.489-1.243-.809-.8286-1.213-2.1414-1.213-3.9385v-8.2663h-2.232v-3.07h2.232v-3.9684h4.358v3.9684h2.98v3.07h-2.98v8.2514c0 .6289.129 1.0782.389 1.3477.269.2696.634.4044 1.093.4044.24 0 .499-.015.779-.045.279-.0399.519-.0798.719-.1198l.374 3.1598c-.439.1298-.924.2346-1.453.3145-.529.0899-1.048.1348-1.557.1348zM200.626 35v-2.6207l2.111-.4492V14.7235l-2.336-.4493v-2.6356h6.694v9.2247c.509-.7487 1.138-1.3278 1.887-1.7371.759-.4193 1.617-.629 2.576-.629 1.627 0 2.915.5441 3.863 1.6323.959 1.0783 1.438 2.7505 1.438 5.0168v6.7838l2.096.4492V35h-8.356v-2.6207l1.887-.4492v-6.8138c0-1.1681-.22-1.9967-.659-2.4859-.439-.4892-1.083-.7338-1.932-.7338-1.228 0-2.161.4792-2.8 1.4377v8.5958l1.887.4492V35h-8.356zm19.572 0v-2.6207l2.112-.4492V21.8816l-2.336-.4492v-2.6357h6.394l.18 2.1415c.519-.7787 1.168-1.3777 1.947-1.797.788-.4293 1.697-.644 2.725-.644 1.038 0 1.927.2297 2.666.6889.739.4592 1.298 1.1531 1.677 2.0816.499-.8686 1.148-1.5475 1.947-2.0367.798-.4892 1.737-.7338 2.815-.7338 1.597 0 2.855.5441 3.774 1.6323.928 1.0882 1.393 2.7455 1.393 4.9718v6.8288l2.111.4492V35h-8.371v-2.6207l1.887-.4492v-6.8437c0-1.1881-.2-2.0167-.599-2.4859-.39-.4693-.959-.7039-1.707-.7039-.679 0-1.253.1947-1.723.5841-.469.3793-.808.8835-1.018 1.5125v7.9369l1.767.4492V35h-7.892v-2.6207l1.767-.4492v-6.8437c0-1.1681-.199-1.9918-.599-2.471-.389-.4792-.968-.7188-1.737-.7188-1.208 0-2.111.4842-2.71 1.4526v8.5809l1.887.4492V35h-8.357zm44.926 0l-7.008-18.9288-1.947-.2396V13.196h8.671v2.6356l-1.962.2995 4.283 12.8638.329 1.198h.09l.315-1.168 4.283-12.8938-2.292-.2995V13.196h8.267v2.6356l-1.977.2396L269.602 35h-4.478zm14.347 0v-2.6207l2.111-.4492V21.8816l-2.336-.4492v-2.6357h6.709v13.1334l2.096.4492V35h-8.58zm1.961-19.6326v-3.7288h4.523v3.7288h-4.523zm15.035 19.9471c-1.208 0-2.336-.1148-3.384-.3445-1.038-.2296-2.037-.559-2.995-.9883l-.045-4.5825h3.04l.584 2.3362c.34.1697.709.3045 1.108.4043.41.0999.874.1498 1.393.1498.978 0 1.667-.1598 2.067-.4792.399-.3195.599-.7188.599-1.1981 0-.4492-.215-.8436-.644-1.183-.43-.3494-1.273-.6539-2.531-.9135-1.927-.3993-3.345-1.0183-4.253-1.8569-.899-.8387-1.348-1.9119-1.348-3.2197 0-.8886.225-1.7072.674-2.456.459-.7487 1.153-1.3428 2.082-1.782.938-.4493 2.136-.6739 3.594-.6739 1.218 0 2.331.1198 3.339.3594 1.018.2296 1.872.5341 2.561.9135l.045 4.4327h-3.025l-.464-2.1265c-.58-.3994-1.308-.599-2.187-.599-.759 0-1.348.1597-1.767.4792-.409.3095-.614.7038-.614 1.183 0 .4193.18.7987.539 1.1381.37.3295 1.173.634 2.411.9135 2.007.4593 3.469 1.0733 4.388 1.842.918.7587 1.378 1.827 1.378 3.2047 0 1.5075-.549 2.7255-1.648 3.654-1.088.9284-2.72 1.3927-4.897 1.3927zm15.41 0c-1.717 0-3.06-.5391-4.028-1.6173-.969-1.0883-1.453-2.7755-1.453-5.0617v-6.7539l-1.782-.4492v-2.6357h6.155v9.8688c0 1.158.2 1.9917.599 2.5008.409.4992 1.023.7488 1.842.7488 1.308 0 2.291-.4892 2.95-1.4676v-8.5659l-1.932-.4492v-2.6357h6.305v13.1334l1.947.4492V35h-5.781l-.299-2.0516c-1.069 1.5774-2.576 2.3661-4.523 2.3661zm17.656 0c-1.607 0-2.885-.4293-3.834-1.2879-.948-.8686-1.422-2.0466-1.422-3.5342 0-1.5175.614-2.7554 1.842-3.7138 1.237-.9585 3.055-1.4377 5.451-1.4377h2.141v-1.198c0-.7787-.23-1.4077-.689-1.8869-.449-.4892-1.128-.7338-2.036-.7338-.47 0-.894.0599-1.273.1797-.37.1099-.704.2696-1.004.4793l-.344 2.1414h-3.145l-.06-4.208c.849-.4792 1.767-.8686 2.756-1.1681.988-.2995 2.091-.4493 3.309-.4493 2.117 0 3.789.4942 5.017 1.4826 1.228.9884 1.842 2.391 1.842 4.208v7.323c.01.2096.03.4193.06.6289l1.692.2396V35h-5.421c-.11-.2795-.22-.579-.33-.8985-.109-.3195-.189-.639-.239-.9584-.519.6589-1.133 1.188-1.842 1.5873-.699.3894-1.523.5841-2.471.5841zm1.168-3.2347c.609 0 1.183-.1348 1.722-.4043.549-.2796.979-.644 1.288-1.0932v-2.5608h-2.156c-.959 0-1.688.2197-2.187.6589-.489.4393-.734.9684-.734 1.5874 0 .5791.18 1.0283.54 1.3478.369.3095.878.4642 1.527.4642zM341.154 35v-2.6207l2.111-.4492V14.7235l-2.336-.4493v-2.6356h6.709v20.2915l2.112.4492V35h-8.596zm9.898 0v-2.6207l2.112-.4492V21.8816l-2.336-.4492v-2.6357h6.709v13.1334l2.096.4492V35h-8.581zm1.962-19.6326v-3.7288h4.523v3.7288h-4.523zM361.475 35v-2.5757l8.431-10.5726h-4.372l-.495 2.7704h-3.204v-5.8254h13.313v2.8004l-7.952 10.2731h4.582l.644-2.9801h3.07V35h-14.017zm23.736.3145c-1.557 0-2.915-.3395-4.073-1.0183-1.148-.6889-2.042-1.6323-2.681-2.8304-.629-1.198-.943-2.5657-.943-4.1032v-.599c0-1.6074.299-3.03.898-4.268.599-1.2479 1.443-2.2263 2.531-2.9351 1.098-.7188 2.391-1.0732 3.879-1.0633 2.186 0 3.858.644 5.016 1.9318 1.158 1.2779 1.738 3.075 1.738 5.3911v2.3811h-9.525l-.03.0899c.08 1.0682.435 1.9468 1.064 2.6356.628.6889 1.522 1.0333 2.68 1.0333.799 0 1.543-.0998 2.231-.2995.699-.2096 1.378-.5141 2.037-.9135l1.183 2.6956c-.669.5391-1.512.9883-2.531 1.3477-1.008.3495-2.166.5242-3.474.5242zm-3.13-10.0035h5.406v-.3894c0-.9784-.204-1.7521-.614-2.3211-.399-.5791-1.058-.8686-1.976-.8686-.879 0-1.548.3344-2.007 1.0033-.459.659-.744 1.4926-.854 2.5009l.045.0749zM393.927 35v-2.6207l2.096-.4492V21.8816l-2.321-.4492v-2.6357h6.394l.165 2.0067.03.3594c.799-1.777 1.997-2.6656 3.594-2.6656.26 0 .539.02.839.0599.309.04.589.0999.838.1797l-.464 4.0284-2.171-.1198c-.619-.03-1.123.0749-1.513.3145-.379.2396-.719.584-1.018 1.0333v7.9369l2.097.4492V35h-8.566z" fill="#505050"/></g><defs><clipPath id="clip0"><path fill="#fff" d="M0 0h412v46H0z"/></clipPath><filter id="filter0_i" x="6.39954" y="21.5962" width="85.6201" height="22.9673" filterUnits="userSpaceOnUse" color-interpolation-filters="sRGB"><feFlood flood-opacity="0" result="BackgroundImageFix"/><feBlend in="SourceGraphic" in2="BackgroundImageFix" result="shape"/><feColorMatrix in="SourceAlpha" values="0 0 0 0 0 0 0 0 0 0 0 0 0 0 0 0 0 0 127 0" result="hardAlpha"/><feOffset dy=".613388"/><feGaussianBlur stdDeviation=".306694"/><feComposite in2="hardAlpha" operator="arithmetic" k2="-1" k3="1"/><feColorMatrix values="0 0 0 0 0 0 0 0 0 0 0 0 0 0 0 0 0 0 0.25 0"/><feBlend in2="shape" result="effect1_innerShadow"/></filter></defs></svg>