<svg width="317" height="46" viewBox="0 0 317 46" fill="none" xmlns="http://www.w3.org/2000/svg">
<g clip-path="url(#clip0)">
<rect width="317" height="46" fill="white"/>
<g clip-path="url(#clip1)">
<rect width="62" height="62" transform="translate(1 -8)" fill="white"/>
<rect x="19.252" y="8" width="21.2705" height="21.1618" rx="2" transform="rotate(46.1145 19.252 8)" fill="#5F5F5F"/>
<rect x="45.252" y="8" width="21.2705" height="21.1618" rx="2" transform="rotate(46.1145 45.252 8)" fill="#5F5F5F"/>
<path d="M49.75 22.5C49.75 31.9957 41.8347 39.75 32 39.75C22.1653 39.75 14.25 31.9957 14.25 22.5C14.25 13.0043 22.1653 5.25 32 5.25C41.8347 5.25 49.75 13.0043 49.75 22.5Z" fill="white" stroke="#5F5F5F" stroke-width="2.5"/>
<path d="M52 22.5C52 33.247 43.0686 42 32 42C20.9315 42 12 33.247 12 22.5C12 11.753 20.9315 3 32 3C43.0686 3 52 11.753 52 22.5Z" stroke="white" stroke-width="2"/>
<path d="M32.0203 13.5075L34.3205 16.1911M23.4329 22.4783L25.9631 20.4081M30.1801 28.6889L32.4803 31.4491M40.9911 22.4783L38.4609 24.4718" stroke="#39DBA1" stroke-width="0.460041"/>
<path d="M34.909 21.1974L30.3635 19.8079L29.0908 23.8895L33.5454 25.4526L34.909 21.1974Z" stroke="#39DBA1" stroke-width="0.460041"/>
<path d="M45.257 16.3335L39.6243 17.8925L42.3157 22.5961" stroke="#6C6C6C" stroke-width="0.613388"/>
<path d="M34.7816 21.1477L39.6381 17.8482L34.3672 15.4985L40.1668 10.7942L32.3088 7.89004" stroke="#6C6C6C" stroke-width="0.613388"/>
<path d="M32.5 7.5L35 11M45 16.5L44 19L47 20M45 16L43 13" stroke="#5F5F5F" stroke-width="0.5" stroke-linecap="round" stroke-linejoin="round"/>
<ellipse rx="1.88084" ry="1.8517" transform="matrix(-0.955711 -0.294305 0.304677 -0.952456 40.1223 10.7803)" fill="#ED5147"/>
<ellipse rx="1.41063" ry="1.38878" transform="matrix(-0.955711 -0.294305 0.304677 -0.952456 39.6244 17.8925)" fill="#ED5147"/>
<ellipse rx="1.17552" ry="1.15731" transform="matrix(-0.955711 -0.294305 0.304677 -0.952456 34.7678 21.1917)" fill="#ED5147"/>
<ellipse rx="1.41063" ry="1.38878" transform="matrix(-0.955711 -0.294305 0.304677 -0.952456 32.3539 7.90396)" fill="#ED5147"/>
<ellipse rx="0.940419" ry="0.925852" transform="matrix(-0.955711 -0.294305 0.304677 -0.952456 34.3672 15.4986)" fill="#ED5147"/>
<ellipse rx="0.925852" ry="0.940419" transform="matrix(0.304677 -0.952456 0.955711 0.294305 42.2993 22.4941)" fill="#ED5147"/>
<ellipse rx="0.925852" ry="0.940419" transform="matrix(0.304677 -0.952456 0.955711 0.294305 45.2569 16.3335)" fill="#ED5147"/>
<ellipse rx="0.75" ry="0.761801" transform="matrix(0.304677 -0.952456 0.955711 0.294305 46.9566 19.9385)" fill="#ED5147"/>
<ellipse rx="0.75" ry="0.761801" transform="matrix(0.304677 -0.952456 0.955711 0.294305 43.9566 18.9385)" fill="#ED5147"/>
<ellipse rx="0.75" ry="0.761801" transform="matrix(0.304677 -0.952456 0.955711 0.294305 42.9566 12.9385)" fill="#ED5147"/>
<ellipse rx="0.75" ry="0.761801" transform="matrix(0.304677 -0.952456 0.955711 0.294305 34.9566 10.9385)" fill="#ED5147"/>
<path d="M38.4542 35.6318L36.8652 30.1053L32.0713 32.746" stroke="#6C6C6C" stroke-width="0.613388"/>
<path d="M33.5474 25.354L36.9103 30.1191L39.3051 24.9475L44.0998 30.6378L47.0597 22.9279" stroke="#6C6C6C" stroke-width="0.613388"/>
<path d="M35 37L36 34L38.5 35.5L41 32M47 23L44 25" stroke="#5F5F5F" stroke-width="0.5" stroke-linecap="round" stroke-linejoin="round"/>
<ellipse rx="1.8517" ry="1.88084" transform="matrix(0.304677 -0.952456 0.955711 0.294305 44.1138 30.5939)" fill="#954AF3"/>
<ellipse rx="1.38878" ry="1.41063" transform="matrix(0.304677 -0.952456 0.955711 0.294305 36.865 30.1054)" fill="#954AF3"/>
<ellipse rx="1.15731" ry="1.17552" transform="matrix(0.304677 -0.952456 0.955711 0.294305 33.5023 25.3402)" fill="#954AF3"/>
<ellipse rx="1.38878" ry="1.41063" transform="matrix(0.304677 -0.952456 0.955711 0.294305 47.0453 22.9719)" fill="#954AF3"/>
<ellipse rx="0.925852" ry="0.940419" transform="matrix(0.304677 -0.952456 0.955711 0.294305 39.3049 24.9474)" fill="#954AF3"/>
<ellipse rx="0.940419" ry="0.925852" transform="matrix(0.955711 0.294305 -0.304677 0.952456 32.175 32.7298)" fill="#954AF3"/>
<ellipse rx="0.940419" ry="0.925852" transform="matrix(0.955711 0.294305 -0.304677 0.952456 38.4538 35.6318)" fill="#954AF3"/>
<ellipse rx="0.75" ry="0.738382" transform="matrix(0.955711 0.294305 -0.304677 0.952456 35.9418 33.924)" fill="#954AF3"/>
<ellipse rx="0.75" ry="0.738382" transform="matrix(0.955711 0.294305 -0.304677 0.952456 40.9418 31.924)" fill="#954AF3"/>
<ellipse rx="0.75" ry="0.738382" transform="matrix(0.955711 0.294305 -0.304677 0.952456 34.9418 36.924)" fill="#954AF3"/>
<path d="M29.0739 23.9574L24.2173 27.2569L29.4883 29.6066L23.6886 34.3109L31.5466 37.2151" stroke="#6C6C6C" stroke-width="0.613388"/>
<path d="M18.5985 28.7722L24.2312 27.2132L21.5398 22.5096" stroke="#6C6C6C" stroke-width="0.613388"/>
<path d="M17 26L21 26L18.5 29L22 31" stroke="#5F5F5F" stroke-width="0.5" stroke-linecap="round" stroke-linejoin="round"/>
<path d="M31.5 37L29 34" stroke="#5F5F5F" stroke-width="0.5" stroke-linecap="round" stroke-linejoin="round"/>
<ellipse rx="1.88084" ry="1.8517" transform="matrix(0.955711 0.294305 -0.304677 0.952456 23.7332 34.3249)" fill="#FF8933"/>
<ellipse rx="1.41063" ry="1.38878" transform="matrix(0.955711 0.294305 -0.304677 0.952456 24.2311 27.2132)" fill="#FF8933"/>
<ellipse rx="1.17552" ry="1.15731" transform="matrix(0.955711 0.294305 -0.304677 0.952456 29.0879 23.9135)" fill="#FF8933"/>
<ellipse rx="1.41063" ry="1.38878" transform="matrix(0.955711 0.294305 -0.304677 0.952456 31.5016 37.2016)" fill="#FF8933"/>
<ellipse rx="0.940419" ry="0.925852" transform="matrix(0.955711 0.294305 -0.304677 0.952456 29.4881 29.6071)" fill="#FF8933"/>
<ellipse rx="0.925852" ry="0.940419" transform="matrix(-0.304677 0.952456 -0.955711 -0.294305 21.5563 22.6116)" fill="#FF8933"/>
<ellipse rx="0.925852" ry="0.940419" transform="matrix(-0.304677 0.952456 -0.955711 -0.294305 18.5988 28.7722)" fill="#FF8933"/>
<ellipse rx="0.75" ry="0.761801" transform="matrix(-0.304677 0.952456 -0.955711 -0.294305 21.9565 30.9385)" fill="#FF8933"/>
<ellipse rx="0.75" ry="0.761801" transform="matrix(-0.304677 0.952456 -0.955711 -0.294305 20.9565 25.9385)" fill="#FF8933"/>
<path d="M25.3769 9.4929L26.9658 15.0194L31.7598 12.3787" stroke="#6C6C6C" stroke-width="0.613388"/>
<path d="M30.2835 19.7702L26.9207 15.0052L24.5259 20.1768L19.7312 14.4864L16.7712 22.1964" stroke="#6C6C6C" stroke-width="0.613388"/>
<path d="M17.0001 22L20.0001 20M23.0001 12.5L25.5001 9.5L29.0001 11L29.0001 8" stroke="#5F5F5F" stroke-width="0.5" stroke-linecap="round" stroke-linejoin="round"/>
<ellipse rx="1.8517" ry="1.88084" transform="matrix(-0.304677 0.952456 -0.955711 -0.294305 19.717 14.5309)" fill="#3531FB"/>
<ellipse rx="1.38878" ry="1.41063" transform="matrix(-0.304677 0.952456 -0.955711 -0.294305 26.9659 15.0194)" fill="#3531FB"/>
<ellipse rx="1.15731" ry="1.17552" transform="matrix(-0.304677 0.952456 -0.955711 -0.294305 30.3285 19.7841)" fill="#3531FB"/>
<ellipse rx="1.38878" ry="1.41063" transform="matrix(-0.304677 0.952456 -0.955711 -0.294305 16.7856 22.1524)" fill="#3531FB"/>
<ellipse rx="0.925852" ry="0.940419" transform="matrix(-0.304677 0.952456 -0.955711 -0.294305 24.5258 20.1769)" fill="#3531FB"/>
<ellipse rx="0.940419" ry="0.925852" transform="matrix(-0.955711 -0.294305 0.304677 -0.952456 31.6559 12.395)" fill="#3531FB"/>
<ellipse rx="0.940419" ry="0.925852" transform="matrix(-0.955711 -0.294305 0.304677 -0.952456 25.3771 9.4925)" fill="#3531FB"/>
<ellipse rx="0.75" ry="0.738382" transform="matrix(-0.955711 -0.294305 0.304677 -0.952456 23.3058 12.3932)" fill="#3531FB"/>
<ellipse rx="0.75" ry="0.738382" transform="matrix(-0.955711 -0.294305 0.304677 -0.952456 28.9419 10.924)" fill="#3531FB"/>
<ellipse rx="0.75" ry="0.738382" transform="matrix(-0.955711 -0.294305 0.304677 -0.952456 19.9419 19.924)" fill="#3531FB"/>
<ellipse rx="0.75" ry="0.738382" transform="matrix(-0.955711 -0.294305 0.304677 -0.952456 28.9419 7.924)" fill="#3531FB"/>
<ellipse cx="32" cy="22.375" rx="10" ry="9.375" fill="#5F5F5F"/>
<circle cx="37.5" cy="16.5" r="4.5" fill="white"/>
<circle cx="31.5" cy="22.5" r="1.5" fill="white"/>
<ellipse rx="0.75" ry="0.761801" transform="matrix(-0.304677 0.952456 -0.955711 -0.294305 16.9565 25.9385)" fill="#FF8933"/>
<ellipse rx="0.75" ry="0.761801" transform="matrix(-0.304677 0.952456 -0.955711 -0.294305 28.9565 33.9385)" fill="#FF8933"/>
<ellipse rx="0.75" ry="0.738382" transform="matrix(0.955711 0.294305 -0.304677 0.952456 43.9418 24.924)" fill="#954AF3"/>
</g>
<path d="M202.354 38.235C202.521 38.015 202.721 37.84 202.954 37.71C203.191 37.58 203.444 37.515 203.714 37.515C204.398 37.515 204.894 37.7683 205.204 38.275C205.518 38.7817 205.674 39.4667 205.674 40.33C205.674 40.8767 205.593 41.365 205.429 41.795C205.269 42.2217 205.031 42.5583 204.714 42.805C204.398 43.0483 204.009 43.17 203.549 43.17C202.993 43.17 202.554 42.9533 202.234 42.52L202.174 43H200.774V35.58L202.354 35.415V38.235ZM203.134 42.02C203.414 42.02 203.636 41.8917 203.799 41.635C203.963 41.375 204.044 40.9467 204.044 40.35C204.044 39.91 204.009 39.57 203.939 39.33C203.873 39.0867 203.776 38.9183 203.649 38.825C203.526 38.7283 203.381 38.68 203.214 38.68C203.038 38.68 202.879 38.735 202.739 38.845C202.599 38.955 202.471 39.105 202.354 39.295V41.535C202.454 41.6917 202.566 41.8117 202.689 41.895C202.813 41.9783 202.961 42.02 203.134 42.02ZM211.79 37.69L210.02 43C209.787 43.7033 209.434 44.2383 208.96 44.605C208.49 44.9717 207.852 45.1783 207.045 45.225L206.865 44.11C207.215 44.0667 207.497 44.0017 207.71 43.915C207.927 43.8283 208.1 43.71 208.23 43.56C208.364 43.4133 208.479 43.2267 208.575 43H208.035L206.35 37.69H208.02L209.05 41.99L210.17 37.69H211.79ZM223.743 40.975C223.743 41.405 223.629 41.785 223.403 42.115C223.179 42.445 222.858 42.7033 222.438 42.89C222.018 43.0767 221.513 43.17 220.923 43.17C220.269 43.17 219.721 43.075 219.278 42.885C218.838 42.6917 218.473 42.4533 218.183 42.17L219.013 41.25C219.269 41.4733 219.553 41.6467 219.863 41.77C220.173 41.89 220.513 41.95 220.883 41.95C221.226 41.95 221.504 41.8767 221.718 41.73C221.931 41.58 222.038 41.37 222.038 41.1C222.038 40.8467 221.948 40.6483 221.768 40.505C221.591 40.3617 221.261 40.2167 220.778 40.07C219.968 39.8233 219.391 39.5333 219.048 39.2C218.708 38.8633 218.538 38.4317 218.538 37.905C218.538 37.4817 218.654 37.12 218.888 36.82C219.124 36.52 219.441 36.2917 219.838 36.135C220.234 35.975 220.671 35.895 221.148 35.895C221.684 35.895 222.158 35.9733 222.568 36.13C222.978 36.2833 223.333 36.5033 223.633 36.79L222.858 37.68C222.624 37.4833 222.373 37.3383 222.103 37.245C221.833 37.1483 221.558 37.1 221.278 37.1C220.964 37.1 220.713 37.1583 220.523 37.275C220.333 37.3883 220.238 37.5567 220.238 37.78C220.238 37.9267 220.279 38.05 220.363 38.15C220.446 38.25 220.591 38.345 220.798 38.435C221.004 38.5217 221.291 38.6233 221.658 38.74C222.094 38.8733 222.468 39.0333 222.778 39.22C223.091 39.4033 223.329 39.635 223.493 39.915C223.659 40.195 223.743 40.5483 223.743 40.975ZM226.129 40.805C226.182 41.2383 226.324 41.55 226.554 41.74C226.784 41.9267 227.067 42.02 227.404 42.02C227.647 42.02 227.882 41.98 228.109 41.9C228.335 41.82 228.554 41.7133 228.764 41.58L229.399 42.44C229.149 42.6533 228.845 42.8283 228.489 42.965C228.135 43.1017 227.732 43.17 227.279 43.17C226.672 43.17 226.164 43.05 225.754 42.81C225.344 42.5667 225.035 42.2333 224.829 41.81C224.622 41.3867 224.519 40.9 224.519 40.35C224.519 39.8267 224.619 39.3517 224.819 38.925C225.019 38.495 225.31 38.1533 225.694 37.9C226.08 37.6433 226.552 37.515 227.109 37.515C227.615 37.515 228.054 37.6233 228.424 37.84C228.797 38.0567 229.085 38.3683 229.289 38.775C229.495 39.1817 229.599 39.67 229.599 40.24C229.599 40.33 229.595 40.4267 229.589 40.53C229.585 40.6333 229.579 40.725 229.569 40.805H226.129ZM227.109 38.575C226.825 38.575 226.597 38.6767 226.424 38.88C226.25 39.0833 226.145 39.4083 226.109 39.855H228.059C228.055 39.4683 227.98 39.1583 227.834 38.925C227.687 38.6917 227.445 38.575 227.109 38.575ZM233.055 37.515C233.601 37.515 234.066 37.6317 234.45 37.865C234.833 38.0983 235.126 38.4267 235.33 38.85C235.533 39.27 235.635 39.7633 235.635 40.33C235.635 41.2167 235.408 41.9117 234.955 42.415C234.501 42.9183 233.868 43.17 233.055 43.17C232.241 43.17 231.608 42.9217 231.155 42.425C230.701 41.9283 230.475 41.2333 230.475 40.34C230.475 39.7767 230.576 39.2833 230.78 38.86C230.986 38.4367 231.281 38.1067 231.665 37.87C232.051 37.6333 232.515 37.515 233.055 37.515ZM233.055 38.68C232.731 38.68 232.491 38.8133 232.335 39.08C232.181 39.3433 232.105 39.7633 232.105 40.34C232.105 40.9267 232.181 41.3517 232.335 41.615C232.491 41.8783 232.731 42.01 233.055 42.01C233.378 42.01 233.616 41.8783 233.77 41.615C233.926 41.3517 234.005 40.9233 234.005 40.33C234.005 39.7567 233.926 39.3383 233.77 39.075C233.616 38.8117 233.378 38.68 233.055 38.68ZM238.331 35.415V43H236.751V35.58L238.331 35.415ZM241.791 37.69L240.046 40.04L241.936 43H240.136L238.391 40.09L240.136 37.69H241.791ZM253.313 36.07V40.505C253.313 41.315 253.07 41.9583 252.583 42.435C252.1 42.9117 251.415 43.15 250.528 43.15C250.081 43.15 249.695 43.0933 249.368 42.98C249.045 42.8633 248.733 42.7033 248.433 42.5L249.058 41.49C249.295 41.6533 249.516 41.7683 249.723 41.835C249.93 41.8983 250.165 41.93 250.428 41.93C250.785 41.93 251.081 41.8167 251.318 41.59C251.558 41.36 251.678 41.005 251.678 40.525V37.27H249.548V36.07H253.313ZM256.319 37.69V41.325C256.319 41.5817 256.366 41.7583 256.459 41.855C256.556 41.9517 256.689 42 256.859 42C257.022 42 257.186 41.9483 257.349 41.845C257.512 41.7417 257.649 41.6017 257.759 41.425V37.69H259.339V43H257.959L257.889 42.38C257.709 42.64 257.472 42.8367 257.179 42.97C256.886 43.1033 256.579 43.17 256.259 43.17C255.746 43.17 255.364 43.0217 255.114 42.725C254.864 42.425 254.739 42.0233 254.739 41.52V37.69H256.319ZM260.735 43V37.69H262.115L262.225 38.305C262.462 38.0383 262.712 37.84 262.975 37.71C263.238 37.58 263.538 37.515 263.875 37.515C264.328 37.515 264.685 37.6533 264.945 37.93C265.205 38.2067 265.335 38.5967 265.335 39.1V43H263.755V39.555C263.755 39.2283 263.718 39.0017 263.645 38.875C263.575 38.745 263.442 38.68 263.245 38.68C263.078 38.68 262.918 38.7333 262.765 38.84C262.615 38.9467 262.465 39.095 262.315 39.285V43H260.735ZM275.867 43V40.08H274.187V43H272.547V36.07H274.187V38.73H275.867V36.07H277.507V43H275.867ZM281.023 37.515C281.57 37.515 282.035 37.6317 282.418 37.865C282.802 38.0983 283.095 38.4267 283.298 38.85C283.502 39.27 283.603 39.7633 283.603 40.33C283.603 41.2167 283.377 41.9117 282.923 42.415C282.47 42.9183 281.837 43.17 281.023 43.17C280.21 43.17 279.577 42.9217 279.123 42.425C278.67 41.9283 278.443 41.2333 278.443 40.34C278.443 39.7767 278.545 39.2833 278.748 38.86C278.955 38.4367 279.25 38.1067 279.633 37.87C280.02 37.6333 280.483 37.515 281.023 37.515ZM281.023 38.68C280.7 38.68 280.46 38.8133 280.303 39.08C280.15 39.3433 280.073 39.7633 280.073 40.34C280.073 40.9267 280.15 41.3517 280.303 41.615C280.46 41.8783 280.7 42.01 281.023 42.01C281.347 42.01 281.585 41.8783 281.738 41.615C281.895 41.3517 281.973 40.9233 281.973 40.33C281.973 39.7567 281.895 39.3383 281.738 39.075C281.585 38.8117 281.347 38.68 281.023 38.68ZM284.72 43V37.69H286.1L286.21 38.305C286.446 38.0383 286.696 37.84 286.96 37.71C287.223 37.58 287.523 37.515 287.86 37.515C288.313 37.515 288.67 37.6533 288.93 37.93C289.19 38.2067 289.32 38.5967 289.32 39.1V43H287.74V39.555C287.74 39.2283 287.703 39.0017 287.63 38.875C287.56 38.745 287.426 38.68 287.23 38.68C287.063 38.68 286.903 38.7333 286.75 38.84C286.6 38.9467 286.45 39.095 286.3 39.285V43H284.72ZM295.431 36.84L295.801 38C295.614 38.0733 295.396 38.1267 295.146 38.16C294.896 38.1933 294.604 38.21 294.271 38.21C294.604 38.3533 294.857 38.5317 295.031 38.745C295.207 38.955 295.296 39.2317 295.296 39.575C295.296 39.9183 295.204 40.225 295.021 40.495C294.837 40.7617 294.577 40.9717 294.241 41.125C293.904 41.2783 293.506 41.355 293.046 41.355C292.826 41.355 292.621 41.335 292.431 41.295C292.314 41.355 292.256 41.4567 292.256 41.6C292.256 41.6833 292.289 41.7583 292.356 41.825C292.426 41.8917 292.587 41.925 292.841 41.925H293.711C294.327 41.925 294.819 42.07 295.186 42.36C295.552 42.65 295.736 43.0167 295.736 43.46C295.736 44.0033 295.497 44.4317 295.021 44.745C294.544 45.0583 293.836 45.215 292.896 45.215C292.216 45.215 291.689 45.145 291.316 45.005C290.946 44.8683 290.687 44.6717 290.541 44.415C290.397 44.1617 290.326 43.86 290.326 43.51H291.726C291.726 43.6633 291.756 43.7883 291.816 43.885C291.879 43.985 291.997 44.0583 292.171 44.105C292.347 44.1517 292.602 44.175 292.936 44.175C293.272 44.175 293.529 44.1483 293.706 44.095C293.882 44.0417 294.002 43.9683 294.066 43.875C294.132 43.785 294.166 43.6833 294.166 43.57C294.166 43.4133 294.104 43.2867 293.981 43.19C293.857 43.0933 293.662 43.045 293.396 43.045H292.551C291.977 43.045 291.561 42.94 291.301 42.73C291.041 42.5167 290.911 42.2683 290.911 41.985C290.911 41.7883 290.962 41.6017 291.066 41.425C291.172 41.2483 291.321 41.1 291.511 40.98C291.171 40.8 290.927 40.5883 290.781 40.345C290.634 40.0983 290.561 39.8033 290.561 39.46C290.561 39.06 290.662 38.7167 290.866 38.43C291.069 38.14 291.349 37.9167 291.706 37.76C292.066 37.6033 292.476 37.525 292.936 37.525C293.332 37.5317 293.677 37.505 293.971 37.445C294.264 37.3817 294.527 37.2967 294.761 37.19C294.994 37.08 295.217 36.9633 295.431 36.84ZM292.976 38.55C292.726 38.55 292.527 38.63 292.381 38.79C292.234 38.9467 292.161 39.1633 292.161 39.44C292.161 39.7333 292.236 39.9583 292.386 40.115C292.536 40.2717 292.732 40.35 292.976 40.35C293.516 40.35 293.786 40.04 293.786 39.42C293.786 38.84 293.516 38.55 292.976 38.55ZM298.087 36.015C298.087 35.7617 298.177 35.5483 298.357 35.375C298.54 35.1983 298.765 35.11 299.032 35.11C299.302 35.11 299.525 35.1983 299.702 35.375C299.878 35.5483 299.967 35.7617 299.967 36.015C299.967 36.1583 299.943 36.3083 299.897 36.465C299.853 36.6217 299.772 36.8183 299.652 37.055L298.937 38.54H298.047L298.477 36.77C298.357 36.6833 298.262 36.5783 298.192 36.455C298.122 36.3283 298.087 36.1817 298.087 36.015ZM304.768 35.895C305.294 35.895 305.734 35.9867 306.088 36.17C306.444 36.3533 306.711 36.5967 306.888 36.9C307.068 37.2 307.158 37.5267 307.158 37.88C307.158 38.16 307.109 38.435 307.013 38.705C306.919 38.9717 306.764 39.255 306.548 39.555C306.331 39.8517 306.043 40.1817 305.683 40.545C305.326 40.9083 304.884 41.325 304.358 41.795H307.318L307.148 43H302.543V41.88C303.113 41.33 303.589 40.8567 303.973 40.46C304.359 40.0633 304.668 39.7217 304.898 39.435C305.131 39.145 305.298 38.8883 305.398 38.665C305.498 38.4417 305.548 38.2267 305.548 38.02C305.548 37.74 305.466 37.5183 305.303 37.355C305.143 37.1917 304.914 37.11 304.618 37.11C304.354 37.11 304.126 37.165 303.933 37.275C303.739 37.385 303.553 37.5633 303.373 37.81L302.403 37.08C302.663 36.72 302.983 36.4333 303.363 36.22C303.743 36.0033 304.211 35.895 304.768 35.895ZM310.724 35.895C311.224 35.895 311.649 35.9767 311.999 36.14C312.352 36.3 312.621 36.515 312.804 36.785C312.991 37.0517 313.084 37.3467 313.084 37.67C313.084 38.11 312.954 38.4667 312.694 38.74C312.437 39.01 312.096 39.2067 311.669 39.33C312.146 39.3933 312.537 39.5567 312.844 39.82C313.151 40.08 313.304 40.49 313.304 41.05C313.304 41.44 313.196 41.795 312.979 42.115C312.766 42.435 312.459 42.6917 312.059 42.885C311.659 43.075 311.181 43.17 310.624 43.17C310.107 43.17 309.644 43.08 309.234 42.9C308.824 42.7167 308.474 42.46 308.184 42.13L309.074 41.3C309.274 41.53 309.496 41.6983 309.739 41.805C309.986 41.9083 310.246 41.96 310.519 41.96C310.862 41.96 311.142 41.8733 311.359 41.7C311.576 41.5233 311.684 41.27 311.684 40.94C311.684 40.5733 311.581 40.31 311.374 40.15C311.171 39.9867 310.882 39.905 310.509 39.905H309.879L310.059 38.815H310.509C310.816 38.815 311.066 38.74 311.259 38.59C311.456 38.44 311.554 38.2133 311.554 37.91C311.554 37.65 311.461 37.445 311.274 37.295C311.087 37.145 310.846 37.07 310.549 37.07C310.272 37.07 310.021 37.1233 309.794 37.23C309.571 37.3367 309.361 37.4833 309.164 37.67L308.354 36.83C308.671 36.5233 309.026 36.2917 309.419 36.135C309.812 35.975 310.247 35.895 310.724 35.895Z" fill="#505050"/>
<path d="M84.0773 16.711H79.6113L78.8083 20H75.0353L79.6993 4.754H84.0773L88.7413 20H84.8803L84.0773 16.711ZM80.1833 14.093H83.4833L81.8333 7.35L80.1833 14.093ZM96.1028 3.676V16.326C96.1028 16.7953 96.2348 17.1327 96.4988 17.338C96.7701 17.536 97.1404 17.635 97.6098 17.635C97.9104 17.635 98.2001 17.602 98.4788 17.536C98.7574 17.4627 99.0178 17.3783 99.2598 17.283L100.096 19.604C99.6998 19.8093 99.2231 19.989 98.6658 20.143C98.1084 20.297 97.4594 20.374 96.7188 20.374C95.3108 20.374 94.2768 19.9707 93.6168 19.164C92.9568 18.35 92.6268 17.261 92.6268 15.897V6.052H89.1838V3.676H96.1028ZM113.573 6.448L114.387 9C113.976 9.16133 113.496 9.27867 112.946 9.352C112.396 9.42533 111.754 9.462 111.021 9.462C111.754 9.77733 112.312 10.1697 112.693 10.639C113.082 11.101 113.276 11.7097 113.276 12.465C113.276 13.2203 113.074 13.895 112.671 14.489C112.268 15.0757 111.696 15.5377 110.955 15.875C110.214 16.2123 109.338 16.381 108.326 16.381C107.842 16.381 107.391 16.337 106.973 16.249C106.716 16.381 106.588 16.6047 106.588 16.92C106.588 17.1033 106.661 17.2683 106.808 17.415C106.962 17.5617 107.318 17.635 107.875 17.635H109.789C111.146 17.635 112.227 17.954 113.034 18.592C113.841 19.23 114.244 20.0367 114.244 21.012C114.244 22.2073 113.72 23.1497 112.671 23.839C111.622 24.5283 110.064 24.873 107.996 24.873C106.5 24.873 105.341 24.719 104.52 24.411C103.706 24.1103 103.138 23.6777 102.815 23.113C102.5 22.5557 102.342 21.892 102.342 21.122H105.422C105.422 21.4593 105.488 21.7343 105.62 21.947C105.759 22.167 106.02 22.3283 106.401 22.431C106.79 22.5337 107.351 22.585 108.084 22.585C108.825 22.585 109.389 22.5263 109.778 22.409C110.167 22.2917 110.431 22.1303 110.57 21.925C110.717 21.727 110.79 21.5033 110.79 21.254C110.79 20.9093 110.654 20.6307 110.383 20.418C110.112 20.2053 109.683 20.099 109.096 20.099H107.237C105.976 20.099 105.059 19.868 104.487 19.406C103.915 18.9367 103.629 18.3903 103.629 17.767C103.629 17.3343 103.743 16.9237 103.97 16.535C104.205 16.1463 104.531 15.82 104.949 15.556C104.201 15.16 103.666 14.6943 103.343 14.159C103.02 13.6163 102.859 12.9673 102.859 12.212C102.859 11.332 103.083 10.5767 103.53 9.946C103.977 9.308 104.593 8.81667 105.378 8.472C106.17 8.12733 107.072 7.955 108.084 7.955C108.957 7.96967 109.716 7.911 110.361 7.779C111.006 7.63967 111.586 7.45267 112.099 7.218C112.612 6.976 113.104 6.71933 113.573 6.448ZM108.172 10.21C107.622 10.21 107.186 10.386 106.863 10.738C106.54 11.0827 106.379 11.5593 106.379 12.168C106.379 12.8133 106.544 13.3083 106.874 13.653C107.204 13.9977 107.637 14.17 108.172 14.17C109.36 14.17 109.954 13.488 109.954 12.124C109.954 10.848 109.36 10.21 108.172 10.21ZM121.452 7.933C122.654 7.933 123.677 8.18967 124.521 8.703C125.364 9.21633 126.009 9.93867 126.457 10.87C126.904 11.794 127.128 12.8793 127.128 14.126C127.128 16.0767 126.629 17.6057 125.632 18.713C124.634 19.8203 123.241 20.374 121.452 20.374C119.662 20.374 118.269 19.8277 117.272 18.735C116.274 17.6423 115.776 16.1133 115.776 14.148C115.776 12.9087 115.999 11.8233 116.447 10.892C116.901 9.96067 117.55 9.23467 118.394 8.714C119.244 8.19333 120.264 7.933 121.452 7.933ZM121.452 10.496C120.74 10.496 120.212 10.7893 119.868 11.376C119.53 11.9553 119.362 12.8793 119.362 14.148C119.362 15.4387 119.53 16.3737 119.868 16.953C120.212 17.5323 120.74 17.822 121.452 17.822C122.163 17.822 122.687 17.5323 123.025 16.953C123.369 16.3737 123.542 15.4313 123.542 14.126C123.542 12.8647 123.369 11.9443 123.025 11.365C122.687 10.7857 122.163 10.496 121.452 10.496Z" fill="#39868B"/>
<path d="M129.693 20V17.668H131.233V10.628H129.693V8.318H133.884L134.522 10.947C134.94 9.94233 135.472 9.19433 136.117 8.703C136.77 8.21167 137.565 7.966 138.504 7.966C138.9 7.966 139.252 7.999 139.56 8.065C139.868 8.12367 140.158 8.208 140.429 8.318L139.78 13.202H137.602V11.046C136.942 11.1633 136.363 11.5227 135.864 12.124C135.365 12.718 134.98 13.4513 134.709 14.324V17.668H137.019V20H129.693ZM147.812 2.202C148.414 2.202 148.905 2.389 149.286 2.763C149.668 3.137 149.858 3.60267 149.858 4.16C149.858 4.71733 149.668 5.18667 149.286 5.568C148.905 5.942 148.414 6.129 147.812 6.129C147.204 6.129 146.705 5.942 146.316 5.568C145.935 5.18667 145.744 4.71733 145.744 4.16C145.744 3.60267 145.935 3.137 146.316 2.763C146.705 2.389 147.204 2.202 147.812 2.202ZM149.913 8.318V17.624H152.883V20H143.126V17.624H146.437V10.694H143.236V8.318H149.913ZM166.482 19.318C166.027 19.6113 165.477 19.8607 164.832 20.066C164.186 20.2713 163.46 20.374 162.654 20.374C161.128 20.374 159.995 19.9853 159.255 19.208C158.514 18.4233 158.144 17.36 158.144 16.018V10.716H155.691V8.318H158.144V5.788L161.62 5.37V8.318H165.382L165.041 10.716H161.62V16.018C161.62 16.5973 161.752 17.0117 162.016 17.261C162.28 17.5103 162.701 17.635 163.281 17.635C163.691 17.635 164.065 17.5873 164.403 17.492C164.747 17.3893 165.055 17.261 165.327 17.107L166.482 19.318ZM172.633 3.335V9.473C173.609 8.44633 174.753 7.933 176.065 7.933C177.107 7.933 177.902 8.23733 178.452 8.846C179.002 9.45467 179.277 10.3127 179.277 11.42V20H175.801V12.388C175.801 11.684 175.721 11.1927 175.559 10.914C175.405 10.6353 175.112 10.496 174.679 10.496C174.313 10.496 173.961 10.6243 173.623 10.881C173.293 11.1303 172.963 11.475 172.633 11.915V20H169.157V3.676L172.633 3.335ZM190.984 7.933C191.812 7.933 192.425 8.20433 192.821 8.747C193.224 9.28233 193.426 10.1513 193.426 11.354V20H190.445V11.75C190.445 11.3393 190.404 11.0497 190.324 10.881C190.25 10.7123 190.096 10.628 189.862 10.628C189.678 10.628 189.488 10.683 189.29 10.793C189.099 10.8957 188.886 11.0937 188.652 11.387V20H186.21V11.75C186.21 11.3393 186.169 11.0497 186.089 10.881C186.015 10.7123 185.861 10.628 185.627 10.628C185.443 10.628 185.253 10.683 185.055 10.793C184.864 10.8957 184.651 11.0937 184.417 11.387V20H181.392V8.318H183.944L184.175 9.451C184.541 8.95233 184.912 8.57467 185.286 8.318C185.66 8.06133 186.103 7.933 186.617 7.933C187.057 7.933 187.431 8.04667 187.739 8.274C188.054 8.494 188.278 8.84233 188.41 9.319C188.762 8.90833 189.15 8.57467 189.576 8.318C190.001 8.06133 190.47 7.933 190.984 7.933ZM97.2174 39.824L99.4359 30.219H102.292L98.8919 42H95.4409L92.0579 30.219H95.0159L97.2174 39.824ZM107.343 28.247C107.807 28.247 108.187 28.3915 108.482 28.6805C108.776 28.9695 108.924 29.3293 108.924 29.76C108.924 30.1907 108.776 30.5533 108.482 30.848C108.187 31.137 107.807 31.2815 107.343 31.2815C106.872 31.2815 106.487 31.137 106.187 30.848C105.892 30.5533 105.745 30.1907 105.745 29.76C105.745 29.3293 105.892 28.9695 106.187 28.6805C106.487 28.3915 106.872 28.247 107.343 28.247ZM108.966 32.973V40.164H111.261V42H103.722V40.164H106.28V34.809H103.807V32.973H108.966ZM117.264 40.368C117.712 40.368 118.072 40.2972 118.344 40.1555C118.621 40.0138 118.76 39.8013 118.76 39.518C118.76 39.3253 118.706 39.1638 118.599 39.0335C118.491 38.9032 118.284 38.7785 117.978 38.6595C117.672 38.5405 117.219 38.3988 116.618 38.2345C115.791 38.0135 115.116 37.6962 114.595 37.2825C114.079 36.8688 113.822 36.2625 113.822 35.4635C113.822 34.6588 114.156 33.993 114.825 33.466C115.499 32.939 116.471 32.6755 117.74 32.6755C118.545 32.6755 119.245 32.7803 119.84 32.99C120.44 33.194 120.959 33.4547 121.395 33.772L120.324 35.353C119.95 35.1207 119.548 34.9365 119.117 34.8005C118.686 34.6588 118.253 34.588 117.817 34.588C116.955 34.588 116.525 34.8203 116.525 35.285C116.525 35.438 116.578 35.5712 116.686 35.6845C116.799 35.7922 117.009 35.9055 117.315 36.0245C117.621 36.1378 118.069 36.2795 118.658 36.4495C119.242 36.6138 119.749 36.8037 120.18 37.019C120.616 37.2343 120.953 37.5233 121.191 37.886C121.429 38.243 121.548 38.7162 121.548 39.3055C121.548 39.9628 121.353 40.5153 120.962 40.963C120.571 41.405 120.052 41.7365 119.406 41.9575C118.76 42.1785 118.052 42.289 117.281 42.289C116.408 42.289 115.638 42.1643 114.969 41.915C114.3 41.6657 113.731 41.337 113.261 40.929L114.612 39.416C114.963 39.688 115.36 39.9147 115.802 40.096C116.25 40.2773 116.737 40.368 117.264 40.368ZM126.522 32.973V39.1525C126.522 39.5888 126.602 39.8892 126.76 40.0535C126.925 40.2178 127.151 40.3 127.44 40.3C127.718 40.3 127.996 40.2122 128.273 40.0365C128.551 39.8608 128.783 39.6228 128.97 39.3225V32.973H131.656V42H129.31L129.191 40.946C128.885 41.388 128.483 41.7223 127.984 41.949C127.486 42.1757 126.964 42.289 126.42 42.289C125.548 42.289 124.899 42.0368 124.474 41.5325C124.049 41.0225 123.836 40.3397 123.836 39.484V32.973H126.522ZM141.629 39.399C141.629 39.739 141.674 39.9855 141.765 40.1385C141.861 40.2915 142.014 40.4077 142.224 40.487L141.671 42.255C141.139 42.204 140.688 42.0878 140.32 41.9065C139.957 41.7195 139.671 41.439 139.461 41.065C139.116 41.4787 138.674 41.7875 138.135 41.9915C137.597 42.1898 137.047 42.289 136.486 42.289C135.557 42.289 134.815 42.0255 134.259 41.4985C133.71 40.9658 133.435 40.283 133.435 39.45C133.435 38.4697 133.817 37.7132 134.582 37.1805C135.353 36.6478 136.435 36.3815 137.829 36.3815H139.045V36.0415C139.045 35.1178 138.45 34.656 137.26 34.656C136.971 34.656 136.6 34.6985 136.146 34.7835C135.693 34.8628 135.24 34.979 134.786 35.132L134.166 33.347C134.75 33.126 135.356 32.9588 135.985 32.8455C136.62 32.7322 137.186 32.6755 137.685 32.6755C139.028 32.6755 140.02 32.9503 140.66 33.5C141.306 34.044 141.629 34.8317 141.629 35.863V39.399ZM137.413 40.368C137.702 40.368 138.005 40.283 138.322 40.113C138.64 39.9373 138.881 39.6908 139.045 39.3735V37.9115H138.382C137.634 37.9115 137.084 38.0277 136.733 38.26C136.382 38.4867 136.206 38.821 136.206 39.263C136.206 39.6087 136.311 39.8807 136.52 40.079C136.736 40.2717 137.033 40.368 137.413 40.368ZM148.932 29.386V39.161C148.932 39.5237 149.034 39.7843 149.238 39.943C149.448 40.096 149.734 40.1725 150.097 40.1725C150.329 40.1725 150.553 40.147 150.768 40.096C150.984 40.0393 151.185 39.9742 151.372 39.9005L152.018 41.694C151.712 41.8527 151.343 41.9915 150.913 42.1105C150.482 42.2295 149.981 42.289 149.408 42.289C148.32 42.289 147.521 41.9773 147.011 41.354C146.501 40.725 146.246 39.8835 146.246 38.8295V31.222H143.586V29.386H148.932ZM158.31 28.247C158.774 28.247 159.154 28.3915 159.449 28.6805C159.743 28.9695 159.891 29.3293 159.891 29.76C159.891 30.1907 159.743 30.5533 159.449 30.848C159.154 31.137 158.774 31.2815 158.31 31.2815C157.839 31.2815 157.454 31.137 157.154 30.848C156.859 30.5533 156.712 30.1907 156.712 29.76C156.712 29.3293 156.859 28.9695 157.154 28.6805C157.454 28.3915 157.839 28.247 158.31 28.247ZM159.933 32.973V40.164H162.228V42H154.689V40.164H157.247V34.809H154.774V32.973H159.933ZM167.814 39.9685H172.336L172.081 42H164.644V40.1045L169.123 34.996H165.018V32.973H172.251V34.86L167.814 39.9685ZM177.132 38.2685C177.223 39.0052 177.464 39.535 177.855 39.858C178.246 40.1753 178.727 40.334 179.3 40.334C179.713 40.334 180.113 40.266 180.498 40.13C180.884 39.994 181.255 39.8127 181.612 39.586L182.691 41.048C182.266 41.4107 181.751 41.7082 181.144 41.9405C180.544 42.1728 179.858 42.289 179.087 42.289C178.056 42.289 177.192 42.085 176.495 41.677C175.798 41.2633 175.274 40.6967 174.922 39.977C174.571 39.2573 174.395 38.43 174.395 37.495C174.395 36.6053 174.565 35.7978 174.905 35.0725C175.245 34.3415 175.741 33.7607 176.393 33.33C177.05 32.8937 177.852 32.6755 178.798 32.6755C179.66 32.6755 180.405 32.8597 181.034 33.228C181.668 33.5963 182.159 34.1262 182.504 34.8175C182.856 35.5088 183.031 36.339 183.031 37.308C183.031 37.461 183.026 37.6253 183.014 37.801C183.009 37.9767 182.997 38.1325 182.98 38.2685H177.132ZM178.798 34.4775C178.317 34.4775 177.928 34.6503 177.634 34.996C177.339 35.3417 177.161 35.8942 177.098 36.6535H180.413C180.408 35.9962 180.28 35.4692 180.031 35.0725C179.781 34.6758 179.371 34.4775 178.798 34.4775ZM185.082 42V40.198H186.272V34.758H185.082V32.973H188.32L188.813 35.0045C189.136 34.2282 189.547 33.6502 190.046 33.2705C190.55 32.8908 191.165 32.701 191.89 32.701C192.196 32.701 192.468 32.7265 192.706 32.7775C192.944 32.8228 193.168 32.888 193.378 32.973L192.876 36.747H191.193V35.081C190.683 35.1717 190.235 35.4493 189.85 35.914C189.465 36.373 189.167 36.9397 188.958 37.614V40.198H190.743V42H185.082Z" fill="#505050"/>
</g>
<defs>
<clipPath id="clip0">
<rect width="317" height="46" fill="white"/>
</clipPath>
<clipPath id="clip1">
<rect width="62" height="62" fill="white" transform="translate(1 -8)"/>
</clipPath>
</defs>
</svg>
