<svg width="201" height="46" fill="none" xmlns="http://www.w3.org/2000/svg"><g clip-path="url(#clip0)"><path fill="#fff" d="M0 0h201v46H0z"/><rect x="19.252" y="8" width="21.2705" height="21.1618" rx="2" transform="rotate(46.114 19.252 8)" fill="#5F5F5F"/><rect x="45.252" y="8" width="21.2705" height="21.1618" rx="2" transform="rotate(46.114 45.252 8)" fill="#5F5F5F"/><path d="M49.75 22.5c0 9.4957-7.9153 17.25-17.75 17.25S14.25 31.9957 14.25 22.5 22.1653 5.25 32 5.25s17.75 7.7543 17.75 17.25z" fill="#fff" stroke="#5F5F5F" stroke-width="2.5"/><path d="M52 22.5C52 33.247 43.0686 42 32 42c-11.0685 0-20-8.753-20-19.5S20.9315 3 32 3c11.0686 0 20 8.753 20 19.5z" stroke="#fff" stroke-width="2"/><path d="M32.0203 13.5075l2.3002 2.6836m-10.8876 6.2872l2.5302-2.0702m4.217 8.2808l2.3002 2.7602m8.5108-8.9708l-2.5302 1.9935M34.909 21.1974l-4.5455-1.3895-1.2727 4.0816 4.4546 1.5631 1.3636-4.2552z" stroke="#39DBA1" stroke-width=".460041"/><path d="M45.257 16.3335l-5.6327 1.559 2.6914 4.7036M34.7816 21.1477l4.8565-3.2995-5.2709-2.3497 5.7996-4.7043-7.858-2.90416" stroke="#6C6C6C" stroke-width=".613388"/><path d="M32.5 7.5L35 11m10 5.5L44 19l3 1m-2-4l-2-3" stroke="#5F5F5F" stroke-width=".5" stroke-linecap="round" stroke-linejoin="round"/><ellipse rx="1.88084" ry="1.8517" transform="matrix(-.95571 -.2943 .30468 -.95246 40.1223 10.7803)" fill="#ED5147"/><ellipse rx="1.41063" ry="1.38878" transform="matrix(-.95571 -.2943 .30468 -.95246 39.6244 17.8925)" fill="#ED5147"/><ellipse rx="1.17552" ry="1.15731" transform="matrix(-.95571 -.2943 .30468 -.95246 34.7678 21.1917)" fill="#ED5147"/><ellipse rx="1.41063" ry="1.38878" transform="matrix(-.95571 -.2943 .30468 -.95246 32.3539 7.90396)" fill="#ED5147"/><ellipse rx=".940419" ry=".925852" transform="matrix(-.95571 -.2943 .30468 -.95246 34.3672 15.4986)" fill="#ED5147"/><ellipse rx=".925852" ry=".940419" transform="matrix(.30468 -.95246 .95571 .2943 42.2993 22.4941)" fill="#ED5147"/><ellipse rx=".925852" ry=".940419" transform="matrix(.30468 -.95246 .95571 .2943 45.2569 16.3335)" fill="#ED5147"/><ellipse rx=".75" ry=".761801" transform="matrix(.30468 -.95246 .95571 .2943 46.9566 19.9385)" fill="#ED5147"/><ellipse rx=".75" ry=".761801" transform="matrix(.30468 -.95246 .95571 .2943 43.9566 18.9385)" fill="#ED5147"/><ellipse rx=".75" ry=".761801" transform="matrix(.30468 -.95246 .95571 .2943 42.9566 12.9385)" fill="#ED5147"/><ellipse rx=".75" ry=".761801" transform="matrix(.30468 -.95246 .95571 .2943 34.9566 10.9385)" fill="#ED5147"/><path d="M38.4542 35.6318l-1.589-5.5265-4.7939 2.6407M33.5474 25.354l3.3629 4.7651 2.3948-5.1716 4.7947 5.6903 2.9599-7.7099" stroke="#6C6C6C" stroke-width=".613388"/><path d="M35 37l1-3 2.5 1.5L41 32m6-9l-3 2" stroke="#5F5F5F" stroke-width=".5" stroke-linecap="round" stroke-linejoin="round"/><ellipse rx="1.8517" ry="1.88084" transform="matrix(.30468 -.95246 .95571 .2943 44.1138 30.5939)" fill="#954AF3"/><ellipse rx="1.38878" ry="1.41063" transform="matrix(.30468 -.95246 .95571 .2943 36.865 30.1054)" fill="#954AF3"/><ellipse rx="1.15731" ry="1.17552" transform="matrix(.30468 -.95246 .95571 .2943 33.5023 25.3402)" fill="#954AF3"/><ellipse rx="1.38878" ry="1.41063" transform="matrix(.30468 -.95246 .95571 .2943 47.0453 22.9719)" fill="#954AF3"/><ellipse rx=".925852" ry=".940419" transform="matrix(.30468 -.95246 .95571 .2943 39.3049 24.9474)" fill="#954AF3"/><ellipse rx=".940419" ry=".925852" transform="matrix(.95571 .2943 -.30468 .95246 32.175 32.7298)" fill="#954AF3"/><ellipse rx=".940419" ry=".925852" transform="matrix(.95571 .2943 -.30468 .95246 38.4538 35.6318)" fill="#954AF3"/><ellipse rx=".75" ry=".738382" transform="matrix(.95571 .2943 -.30468 .95246 35.9418 33.924)" fill="#954AF3"/><ellipse rx=".75" ry=".738382" transform="matrix(.95571 .2943 -.30468 .95246 40.9418 31.924)" fill="#954AF3"/><ellipse rx=".75" ry=".738382" transform="matrix(.95571 .2943 -.30468 .95246 34.9418 36.924)" fill="#954AF3"/><path d="M29.0739 23.9574l-4.8566 3.2995 5.271 2.3497-5.7997 4.7043 7.858 2.9042M18.5985 28.7722l5.6327-1.559-2.6914-4.7036" stroke="#6C6C6C" stroke-width=".613388"/><path d="M17 26h4l-2.5 3 3.5 2M31.5 37L29 34" stroke="#5F5F5F" stroke-width=".5" stroke-linecap="round" stroke-linejoin="round"/><ellipse rx="1.88084" ry="1.8517" transform="matrix(.95571 .2943 -.30468 .95246 23.7332 34.3249)" fill="#FF8933"/><ellipse rx="1.41063" ry="1.38878" transform="matrix(.95571 .2943 -.30468 .95246 24.2311 27.2132)" fill="#FF8933"/><ellipse rx="1.17552" ry="1.15731" transform="matrix(.95571 .2943 -.30468 .95246 29.0879 23.9135)" fill="#FF8933"/><ellipse rx="1.41063" ry="1.38878" transform="matrix(.95571 .2943 -.30468 .95246 31.5016 37.2016)" fill="#FF8933"/><ellipse rx=".940419" ry=".925852" transform="matrix(.95571 .2943 -.30468 .95246 29.4881 29.6071)" fill="#FF8933"/><ellipse rx=".925852" ry=".940419" transform="matrix(-.30468 .95246 -.95571 -.2943 21.5563 22.6116)" fill="#FF8933"/><ellipse rx=".925852" ry=".940419" transform="matrix(-.30468 .95246 -.95571 -.2943 18.5988 28.7722)" fill="#FF8933"/><ellipse rx=".75" ry=".761801" transform="matrix(-.30468 .95246 -.95571 -.2943 21.9565 30.9385)" fill="#FF8933"/><ellipse rx=".75" ry=".761801" transform="matrix(-.30468 .95246 -.95571 -.2943 20.9565 25.9385)" fill="#FF8933"/><path d="M25.3769 9.4929l1.5889 5.5265 4.794-2.6407M30.2835 19.7702l-3.3628-4.765-2.3948 5.1716-4.7947-5.6904-2.96 7.71" stroke="#6C6C6C" stroke-width=".613388"/><path d="M17.0001 22l3-2m3-7.5l2.5-3 3.5 1.5V8" stroke="#5F5F5F" stroke-width=".5" stroke-linecap="round" stroke-linejoin="round"/><ellipse rx="1.8517" ry="1.88084" transform="matrix(-.30468 .95246 -.95571 -.2943 19.717 14.5309)" fill="#3531FB"/><ellipse rx="1.38878" ry="1.41063" transform="matrix(-.30468 .95246 -.95571 -.2943 26.9659 15.0194)" fill="#3531FB"/><ellipse rx="1.15731" ry="1.17552" transform="matrix(-.30468 .95246 -.95571 -.2943 30.3285 19.7841)" fill="#3531FB"/><ellipse rx="1.38878" ry="1.41063" transform="matrix(-.30468 .95246 -.95571 -.2943 16.7856 22.1524)" fill="#3531FB"/><ellipse rx=".925852" ry=".940419" transform="matrix(-.30468 .95246 -.95571 -.2943 24.5258 20.1769)" fill="#3531FB"/><ellipse rx=".940419" ry=".925852" transform="matrix(-.95571 -.2943 .30468 -.95246 31.6559 12.395)" fill="#3531FB"/><ellipse rx=".940419" ry=".925852" transform="matrix(-.95571 -.2943 .30468 -.95246 25.3771 9.4925)" fill="#3531FB"/><ellipse rx=".75" ry=".738382" transform="matrix(-.95571 -.2943 .30468 -.95246 23.3058 12.3932)" fill="#3531FB"/><ellipse rx=".75" ry=".738382" transform="matrix(-.95571 -.2943 .30468 -.95246 28.9419 10.924)" fill="#3531FB"/><ellipse rx=".75" ry=".738382" transform="matrix(-.95571 -.2943 .30468 -.95246 19.9419 19.924)" fill="#3531FB"/><ellipse rx=".75" ry=".738382" transform="matrix(-.95571 -.2943 .30468 -.95246 28.9419 7.924)" fill="#3531FB"/><ellipse cx="32" cy="22.375" rx="10" ry="9.375" fill="#5F5F5F"/><circle cx="37.5" cy="16.5" r="4.5" fill="#fff"/><circle cx="31.5" cy="22.5" r="1.5" fill="#fff"/><ellipse rx=".75" ry=".761801" transform="matrix(-.30468 .95246 -.95571 -.2943 16.9565 25.9385)" fill="#FF8933"/><ellipse rx=".75" ry=".761801" transform="matrix(-.30468 .95246 -.95571 -.2943 28.9565 33.9385)" fill="#FF8933"/><ellipse rx=".75" ry=".738382" transform="matrix(.95571 .2943 -.30468 .95246 43.9418 24.924)" fill="#954AF3"/><path d="M84.0773 16.711h-4.466L78.8083 20h-3.773l4.664-15.246h4.378L88.7413 20h-3.861l-.803-3.289zm-3.894-2.618h3.3l-1.65-6.743-1.65 6.743zM96.1028 3.676v12.65c0 .4693.132.8067.396 1.012.2713.198.6416.297 1.111.297.3006 0 .5903-.033.869-.099.2786-.0733.539-.1577.781-.253l.8362 2.321c-.3962.2053-.8729.385-1.4302.539-.5574.154-1.2064.231-1.947.231-1.408 0-2.442-.4033-3.102-1.21-.66-.814-.99-1.903-.99-3.267V6.052h-3.443V3.676h6.919zm17.4702 2.772L114.387 9c-.411.16133-.891.27867-1.441.352s-1.192.11-1.925.11c.733.31533 1.291.7077 1.672 1.177.389.462.583 1.0707.583 1.826 0 .7553-.202 1.43-.605 2.024-.403.5867-.975 1.0487-1.716 1.386-.741.3373-1.617.506-2.629.506-.484 0-.935-.044-1.353-.132-.257.132-.385.3557-.385.671 0 .1833.073.3483.22.495.154.1467.51.22 1.067.22h1.914c1.357 0 2.438.319 3.245.957.807.638 1.21 1.4447 1.21 2.42 0 1.1953-.524 2.1377-1.573 2.827-1.049.6893-2.607 1.034-4.675 1.034-1.496 0-2.655-.154-3.476-.462-.814-.3007-1.382-.7333-1.705-1.298-.315-.5573-.473-1.221-.473-1.991h3.08c0 .3373.066.6123.198.825.139.22.4.3813.781.484.389.1027.95.154 1.683.154.741 0 1.305-.0587 1.694-.176.389-.1173.653-.2787.792-.484.147-.198.22-.4217.22-.671 0-.3447-.136-.6233-.407-.836-.271-.2127-.7-.319-1.287-.319h-1.859c-1.261 0-2.178-.231-2.75-.693-.572-.4693-.858-1.0157-.858-1.639 0-.4327.114-.8433.341-1.232.235-.3887.561-.715.979-.979-.748-.396-1.283-.8617-1.606-1.397-.323-.5427-.484-1.1917-.484-1.947 0-.88.224-1.6353.671-2.266.447-.638 1.063-1.12933 1.848-1.474.792-.34467 1.694-.517 2.706-.517.873.01467 1.632-.044 2.277-.176.645-.13933 1.225-.32633 1.738-.561.513-.242 1.005-.49867 1.474-.77zm-5.401 3.762c-.55 0-.986.176-1.309.528-.323.3447-.484.8213-.484 1.43 0 .6453.165 1.1403.495 1.485.33.3447.763.517 1.298.517 1.188 0 1.782-.682 1.782-2.046 0-1.276-.594-1.914-1.782-1.914zm13.28-2.277c1.202 0 2.225.25667 3.069.77.843.51333 1.488 1.23567 1.936 2.167.447.924.671 2.0093.671 3.256 0 1.9507-.499 3.4797-1.496 4.587-.998 1.1073-2.391 1.661-4.18 1.661-1.79 0-3.183-.5463-4.18-1.639-.998-1.0927-1.496-2.6217-1.496-4.587 0-1.2393.223-2.3247.671-3.256.454-.93133 1.103-1.65733 1.947-2.178.85-.52067 1.87-.781 3.058-.781zm0 2.563c-.712 0-1.24.2933-1.584.88-.338.5793-.506 1.5033-.506 2.772 0 1.2907.168 2.2257.506 2.805.344.5793.872.869 1.584.869.711 0 1.235-.2897 1.573-.869.344-.5793.517-1.5217.517-2.827 0-1.2613-.173-2.1817-.517-2.761-.338-.5793-.862-.869-1.573-.869z" fill="#39868B"/><path d="M129.693 20v-2.332h1.54v-7.04h-1.54v-2.31h4.191l.638 2.629c.418-1.00467.95-1.75267 1.595-2.244.653-.49133 1.448-.737 2.387-.737.396 0 .748.033 1.056.099.308.05867.598.143.869.253l-.649 4.884h-2.178v-2.156c-.66.1173-1.239.4767-1.738 1.078-.499.594-.884 1.3273-1.155 2.2v3.344h2.31V20h-7.326zm18.119-17.798c.602 0 1.093.187 1.474.561.382.374.572.83967.572 1.397s-.19 1.02667-.572 1.408c-.381.374-.872.561-1.474.561-.608 0-1.107-.187-1.496-.561-.381-.38133-.572-.85067-.572-1.408 0-.55733.191-1.023.572-1.397.389-.374.888-.561 1.496-.561zm2.101 6.116v9.306h2.97V20h-9.757v-2.376h3.311v-6.93h-3.201V8.318h6.677zm16.569 11c-.455.2933-1.005.5427-1.65.748-.646.2053-1.372.308-2.178.308-1.526 0-2.659-.3887-3.399-1.166-.741-.7847-1.111-1.848-1.111-3.19v-5.302h-2.453V8.318h2.453v-2.53l3.476-.418v2.948h3.762l-.341 2.398h-3.421v5.302c0 .5793.132.9937.396 1.243.264.2493.685.374 1.265.374.41 0 .784-.0477 1.122-.143.344-.1027.652-.231.924-.385l1.155 2.211zm6.151-15.983v6.138c.976-1.02667 2.12-1.54 3.432-1.54 1.042 0 1.837.30433 2.387.913s.825 1.4667.825 2.574V20h-3.476v-7.612c0-.704-.08-1.1953-.242-1.474-.154-.2787-.447-.418-.88-.418-.366 0-.718.1283-1.056.385-.33.2493-.66.594-.99 1.034V20h-3.476V3.676l3.476-.341zm18.351 4.598c.828 0 1.441.27133 1.837.814.403.53533.605 1.4043.605 2.607V20h-2.981v-8.25c0-.4107-.041-.7003-.121-.869-.074-.1687-.228-.253-.462-.253-.184 0-.374.055-.572.165-.191.1027-.404.3007-.638.594V20h-2.442v-8.25c0-.4107-.041-.7003-.121-.869-.074-.1687-.228-.253-.462-.253-.184 0-.374.055-.572.165-.191.1027-.404.3007-.638.594V20h-3.025V8.318h2.552l.231 1.133c.366-.49867.737-.87633 1.111-1.133.374-.25667.817-.385 1.331-.385.44 0 .814.11367 1.122.341.315.22.539.56833.671 1.045.352-.41067.74-.74433 1.166-1.001.425-.25667.894-.385 1.408-.385zM97.2174 39.824l2.2185-9.605h2.8561L98.8919 42h-3.451l-3.383-11.781h2.958l2.2015 9.605zm10.1256-11.577c.464 0 .844.1445 1.139.4335.294.289.442.6488.442 1.0795 0 .4307-.148.7933-.442 1.088-.295.289-.675.4335-1.139.4335-.471 0-.856-.1445-1.156-.4335-.295-.2947-.442-.6573-.442-1.088 0-.4307.147-.7905.442-1.0795.3-.289.685-.4335 1.156-.4335zm1.623 4.726v7.191h2.295V42h-7.539v-1.836h2.558v-5.355h-2.473v-1.836h5.159zm8.298 7.395c.448 0 .808-.0708 1.08-.2125.277-.1417.416-.3542.416-.6375 0-.1927-.054-.3542-.161-.4845-.108-.1303-.315-.255-.621-.374s-.759-.2607-1.36-.425c-.827-.221-1.502-.5383-2.023-.952-.516-.4137-.773-1.02-.773-1.819 0-.8047.334-1.4705 1.003-1.9975.674-.527 1.646-.7905 2.915-.7905.805 0 1.505.1048 2.1.3145.6.204 1.119.4647 1.555.782l-1.071 1.581c-.374-.2323-.776-.4165-1.207-.5525-.431-.1417-.864-.2125-1.3-.2125-.862 0-1.292.2323-1.292.697 0 .153.053.2862.161.3995.113.1077.323.221.629.34.306.1133.754.255 1.343.425.584.1643 1.091.3542 1.522.5695.436.2153.773.5043 1.011.867.238.357.357.8302.357 1.4195 0 .6573-.195 1.2098-.586 1.6575-.391.442-.91.7735-1.556.9945-.646.221-1.354.3315-2.125.3315-.873 0-1.643-.1247-2.312-.374-.669-.2493-1.238-.578-1.708-.986l1.351-1.513c.351.272.748.4987 1.19.68.448.1813.935.272 1.462.272zm9.258-7.395v6.1795c0 .4363.08.7367.238.901.165.1643.391.2465.68.2465.278 0 .556-.0878.833-.2635.278-.1757.51-.4137.697-.714V32.973h2.686V42h-2.346l-.119-1.054c-.306.442-.708.7763-1.207 1.003-.498.2267-1.02.34-1.564.34-.872 0-1.521-.2522-1.946-.7565-.425-.51-.638-1.1928-.638-2.0485v-6.511h2.686zm15.107 6.426c0 .34.045.5865.136.7395.096.153.249.2692.459.3485l-.553 1.768c-.532-.051-.983-.1672-1.351-.3485-.363-.187-.649-.4675-.859-.8415-.345.4137-.787.7225-1.326.9265-.538.1983-1.088.2975-1.649.2975-.929 0-1.671-.2635-2.227-.7905-.549-.5327-.824-1.2155-.824-2.0485 0-.9803.382-1.7368 1.147-2.2695.771-.5327 1.853-.799 3.247-.799h1.216v-.34c0-.9237-.595-1.3855-1.785-1.3855-.289 0-.66.0425-1.114.1275-.453.0793-.906.1955-1.36.3485l-.62-1.785c.584-.221 1.19-.3882 1.819-.5015.635-.1133 1.201-.17 1.7-.17 1.343 0 2.335.2748 2.975.8245.646.544.969 1.3317.969 2.363v3.536zm-4.216.969c.289 0 .592-.085.909-.255.318-.1757.559-.4222.723-.7395v-1.462h-.663c-.748 0-1.298.1162-1.649.3485-.351.2267-.527.561-.527 1.003 0 .3457.105.6177.314.816.216.1927.513.289.893.289zm11.519-10.982v9.775c0 .3627.102.6233.306.782.21.153.496.2295.859.2295.232 0 .456-.0255.671-.0765.216-.0567.417-.1218.604-.1955l.646 1.7935c-.306.1587-.675.2975-1.105.4165-.431.119-.932.1785-1.505.1785-1.088 0-1.887-.3117-2.397-.935-.51-.629-.765-1.4705-.765-2.5245V31.222h-2.66v-1.836h5.346zm9.378-1.139c.464 0 .844.1445 1.139.4335.294.289.442.6488.442 1.0795 0 .4307-.148.7933-.442 1.088-.295.289-.675.4335-1.139.4335-.471 0-.856-.1445-1.156-.4335-.295-.2947-.442-.6573-.442-1.088 0-.4307.147-.7905.442-1.0795.3-.289.685-.4335 1.156-.4335zm1.623 4.726v7.191h2.295V42h-7.539v-1.836h2.558v-5.355h-2.473v-1.836h5.159zm7.881 6.9955h4.522L172.081 42h-7.437v-1.8955l4.479-5.1085h-4.105v-2.023h7.233v1.887l-4.437 5.1085zm9.318-1.7c.091.7367.332 1.2665.723 1.5895.391.3173.872.476 1.445.476.413 0 .813-.068 1.198-.204.386-.136.757-.3173 1.114-.544l1.079 1.462c-.425.3627-.94.6602-1.547.8925-.6.2323-1.286.3485-2.057.3485-1.031 0-1.895-.204-2.592-.612-.697-.4137-1.221-.9803-1.573-1.7-.351-.7197-.527-1.547-.527-2.482 0-.8897.17-1.6972.51-2.4225.34-.731.836-1.3118 1.488-1.7425.657-.4363 1.459-.6545 2.405-.6545.862 0 1.607.1842 2.236.5525.634.3683 1.125.8982 1.47 1.5895.352.6913.527 1.5215.527 2.4905 0 .153-.005.3173-.017.493-.005.1757-.017.3315-.034.4675h-5.848zm1.666-3.791c-.481 0-.87.1728-1.164.5185-.295.3457-.473.8982-.536 1.6575h3.315c-.005-.6573-.133-1.1843-.382-1.581-.25-.3967-.66-.595-1.233-.595zM185.082 42v-1.802h1.19v-5.44h-1.19v-1.785h3.238l.493 2.0315c.323-.7763.734-1.3543 1.233-1.734.504-.3797 1.119-.5695 1.844-.5695.306 0 .578.0255.816.0765.238.0453.462.1105.672.1955l-.502 3.774h-1.683v-1.666c-.51.0907-.958.3683-1.343.833-.385.459-.683 1.0257-.892 1.7v2.584h1.785V42h-5.661z" fill="#505050"/></g><defs><clipPath id="clip0"><path fill="#fff" d="M0 0h201v46H0z"/></clipPath></defs></svg>